<svg xmlns="http://www.w3.org/2000/svg" version="1.1" xmlns:xlink="http://www.w3.org/1999/xlink" xmlns:svgjs="http://svgjs.com/svgjs" width="1440" height="560" preserveAspectRatio="none" viewBox="0 0 1440 560"><g mask="url(&quot;#SvgjsMask2383&quot;)" fill="none"><rect width="1440" height="560" x="0" y="0" fill="url(#SvgjsLinearGradient2384)"></rect><path d="M907.8109913172024 427.8569294029735L884.2443375608364 538.7293182448268 1018.6833801590557 451.42358315933956z" fill="rgba(156, 158, 164, 0.29)" class="triangle-float1"></path><path d="M1359.688,563.381C1396.184,563.579,1434.631,554.339,1453.589,523.152C1473.154,490.967,1467.09,450.42,1448.145,417.867C1429.325,385.529,1397.083,360.545,1359.688,361.803C1323.978,363.004,1298.771,392.511,1280.967,423.489C1263.242,454.329,1250.088,491.144,1267.532,522.144C1285.221,553.579,1323.619,563.186,1359.688,563.381" fill="rgba(156, 158, 164, 0.29)" class="triangle-float2"></path><path d="M1046.1716353428887 266.76077871260173L1138.4434560476466 263.53857573118694 1087.4742412231456 126.74194616475734z" fill="rgba(156, 158, 164, 0.29)" class="triangle-float3"></path><path d="M1211.5665324740435 189.8787445496962L1084.9863539694152 292.38135202171804 1187.4889614414371 418.9615305263463 1314.0691399460652 316.45892305432443z" fill="rgba(156, 158, 164, 0.29)" class="triangle-float3"></path><path d="M1004.6017178646135 432.43965267769215L1106.1641883880416 530.5173904038406 1204.24192611419 428.9549198804127 1102.679455590762 330.87718215426423z" fill="rgba(156, 158, 164, 0.29)" class="triangle-float3"></path><path d="M857.3099570581506 348.7184731047804L945.3619692932587 326.7646407478776 923.4081369363558 238.71262851276958 835.3561247012478 260.6664608696724z" fill="rgba(156, 158, 164, 0.29)" class="triangle-float2"></path></g><defs><mask id="SvgjsMask2383"><rect width="1440" height="560" fill="#ffffff"></rect></mask><linearGradient x1="50%" y1="0%" x2="50%" y2="100%" gradientUnits="userSpaceOnUse" id="SvgjsLinearGradient2384"><stop stop-color="rgba(14, 42, 71, 0.33)" offset="0"></stop><stop stop-color="rgba(235, 240, 241, 0.26)" offset="1"></stop></linearGradient><style>
            @keyframes float1 {
                0%{transform: translate(0, 0)}
                50%{transform: translate(-10px, 0)}
                100%{transform: translate(0, 0)}
            }

            .triangle-float1 {
                animation: float1 5s infinite;
            }

            @keyframes float2 {
                0%{transform: translate(0, 0)}
                50%{transform: translate(-5px, -5px)}
                100%{transform: translate(0, 0)}
            }

            .triangle-float2 {
                animation: float2 4s infinite;
            }

            @keyframes float3 {
                0%{transform: translate(0, 0)}
                50%{transform: translate(0, -10px)}
                100%{transform: translate(0, 0)}
            }

            .triangle-float3 {
                animation: float3 6s infinite;
            }
        </style></defs></svg>