<svg xmlns="http://www.w3.org/2000/svg" version="1.1" xmlns:xlink="http://www.w3.org/1999/xlink" xmlns:svgjs="http://svgjs.com/svgjs" width="1400" height="700" preserveAspectRatio="none" viewBox="0 0 1400 700"><g mask="url(&quot;#SvgjsMask2632&quot;)" fill="none"><rect width="1400" height="700" x="0" y="0" fill="url(#SvgjsLinearGradient2633)"></rect><path d="M190.85956570288783 209.95168913902228L154.97966174379678 290.5392728752922 293.8009893277473 304.0653369457939z" fill="rgba(240, 241, 244, 0.9)" class="triangle-float2"></path><path d="M1321.251332967318 370.43611051203214L1302.4117011041735 251.48735630018362 1183.462946892325 270.3269881633281 1202.3025787554693 389.2757423751766z" fill="rgba(240, 241, 244, 0.9)" class="triangle-float1"></path><path d="M1190.7465407287832 337.8836632775572L1060.7905041999486 287.99821471838885 1010.9050556407802 417.9542512472235 1140.861092169615 467.8396998063919z" fill="rgba(240, 241, 244, 0.9)" class="triangle-float1"></path><path d="M1134.8952363887486 617.4317404769699L1124.498881409787 498.6008593093664 1005.6680002421834 508.997214288328 1016.064355221145 627.8280954559315z" fill="rgba(240, 241, 244, 0.9)" class="triangle-float3"></path><path d="M481.806,293.44C501.64,292.19,516.034,276.6,525.654,259.211C534.899,242.501,539.344,222.72,530.207,205.951C520.716,188.531,501.643,178.963,481.806,178.737C461.547,178.506,442.253,187.683,431.456,204.826C419.892,223.187,416.494,246.549,427.214,265.415C438.045,284.477,459.925,294.819,481.806,293.44" fill="rgba(240, 241, 244, 0.9)" class="triangle-float3"></path><path d="M1413.095,887.153C1482.013,893.226,1558.654,876.193,1593.328,816.324C1628.056,756.362,1601.619,683.401,1565.265,624.41C1531.079,568.936,1478.207,521.317,1413.095,523.861C1351.127,526.282,1307.957,580.084,1280.215,635.548C1255.727,684.505,1255.029,740.362,1280.593,788.766C1308.128,840.903,1354.362,881.977,1413.095,887.153" fill="rgba(240, 241, 244, 0.9)" class="triangle-float2"></path></g><defs><mask id="SvgjsMask2632"><rect width="1400" height="700" fill="#ffffff"></rect></mask><linearGradient x1="50%" y1="100%" x2="50%" y2="0%" gradientUnits="userSpaceOnUse" id="SvgjsLinearGradient2633"><stop stop-color="rgba(14, 42, 71, 0.36)" offset="0"></stop><stop stop-color="rgba(225, 228, 232, 0.73)" offset="1"></stop></linearGradient><style>
            @keyframes float1 {
                0%{transform: translate(0, 0)}
                50%{transform: translate(-10px, 0)}
                100%{transform: translate(0, 0)}
            }

            .triangle-float1 {
                animation: float1 5s infinite;
            }

            @keyframes float2 {
                0%{transform: translate(0, 0)}
                50%{transform: translate(-5px, -5px)}
                100%{transform: translate(0, 0)}
            }

            .triangle-float2 {
                animation: float2 4s infinite;
            }

            @keyframes float3 {
                0%{transform: translate(0, 0)}
                50%{transform: translate(0, -10px)}
                100%{transform: translate(0, 0)}
            }

            .triangle-float3 {
                animation: float3 6s infinite;
            }
        </style></defs></svg>