<svg xmlns="http://www.w3.org/2000/svg" version="1.1" xmlns:xlink="http://www.w3.org/1999/xlink" xmlns:svgjs="http://svgjs.com/svgjs" width="1440" height="560" preserveAspectRatio="none" viewBox="0 0 1440 560"><g mask="url(&quot;#SvgjsMask4435&quot;)" fill="none"><rect width="1440" height="560" x="0" y="0" fill="url(#SvgjsRadialGradient4436)"></rect><path d="M1440 0L1262.97 0L1440 26.32z" fill="rgba(255, 255, 255, .1)"></path><path d="M1262.97 0L1440 26.32L1440 34.769999999999996L787.6800000000001 0z" fill="rgba(255, 255, 255, .075)"></path><path d="M787.68 0L1440 34.769999999999996L1440 362.35999999999996L634.66 0z" fill="rgba(255, 255, 255, .05)"></path><path d="M634.66 0L1440 362.35999999999996L1440 363.87999999999994L380.49 0z" fill="rgba(255, 255, 255, .025)"></path><path d="M0 560L79.62 560L0 353.08000000000004z" fill="rgba(0, 0, 0, .1)"></path><path d="M0 353.08000000000004L79.62 560L272.18 560L0 248.21000000000004z" fill="rgba(0, 0, 0, .075)"></path><path d="M0 248.21000000000004L272.18 560L337.86 560L0 230.36000000000004z" fill="rgba(0, 0, 0, .05)"></path><path d="M0 230.36L337.86 560L349.03000000000003 560L0 194.43z" fill="rgba(0, 0, 0, .025)"></path></g><defs><mask id="SvgjsMask4435"><rect width="1440" height="560" fill="#ffffff"></rect></mask><radialGradient cx="50%" cy="100%" r="912.14" gradientUnits="userSpaceOnUse" id="SvgjsRadialGradient4436"><stop stop-color="rgba(154, 171, 188, 0.69)" offset="0"></stop><stop stop-color="rgba(255, 255, 255, 0.15)" offset="1"></stop></radialGradient></defs></svg>