<svg xmlns="http://www.w3.org/2000/svg" enable-background="new 0 0 3000 3000" viewBox="473 863.49 2000 1621.99"><path fill="#fe9526" d="M1077.44,1785.336c0,0,30.041,210.449,55.171,298.222c25.129,87.773,33.105,260.876,21.041,291.634    c-12.065,30.758-43.478,22.787-71.985,41.385c-28.507,18.597-34.419,52.041,4.519,64.051c38.938,12.01,97.276-3.558,118.586-4.885    c36.797-2.291,54.343-28.996,29.337-98.363c-15.211-42.194,39.172-360.208,16.458-392.777    c-22.715-32.57,138.612-68.418,172.707-168.859c34.095-100.439,25.805-116.746,13.356-143.249    C1424.182,1645.989,1077.44,1785.336,1077.44,1785.336z" class="colore5d8d1 svgShape"/><path fill="#167ffc" d="M1077.44,1785.336c0,0,30.041,210.449,55.171,298.222c25.129,87.773,33.105,260.876,21.041,291.634    c-12.065,30.758-43.478,22.787-71.985,41.385c-28.507,18.597-34.419,52.041,4.519,64.051c38.938,12.01,97.276-3.558,118.586-4.885    c36.797-2.291,54.343-28.996,29.337-98.363c-15.211-42.194,39.172-360.208,16.458-392.777    c-22.715-32.57,138.612-68.418,172.707-168.859c34.095-100.439,25.805-116.746,13.356-143.249    C1424.182,1645.989,1077.44,1785.336,1077.44,1785.336z" class="color000000 svgShape" opacity=".53"/><path fill="#fe9526" d="M2376.341,2077.142c-23.648-13.975-42.457-28.949-57.679-43.734    c-37.091,20.542-60.079,39.314-88.791,70.327c48.736,10.869,71.145,25.041,71.145,25.041    c65.977,79.318,59.067,244.99,59.067,244.99c-71.577,0.48-77.272,47.369-73.046,67.793c4.228,20.423,126.931,19.602,137.02-0.918    C2446.072,2368.913,2421.51,2103.426,2376.341,2077.142z" class="colore5d8d1 svgShape"/><path fill="#167ffc" d="M2376.341,2077.142c-23.648-13.975-42.457-28.949-57.679-43.734c-37.091,20.542-60.079,39.314-88.791,70.327    c48.736,10.869,71.145,25.041,71.145,25.041c65.977,79.318,59.067,244.99,59.067,244.99c-71.577,0.48-77.272,47.369-73.046,67.793    c4.228,20.423,126.931,19.602,137.02-0.918C2446.072,2368.913,2421.51,2103.426,2376.341,2077.142z" class="color000000 svgShape" opacity=".42"/><path fill="#d1e8d5" d="M2464.67,2450.748c-10.006,20.518-132.709,21.34-136.936,0.917    c-4.228-20.423,1.349-67.253,73.008-67.733c0,0,6.864-165.73-59.112-245.132c0,0-15.386-1.042-40.446-5.128    c-91.066-14.606-310.344-69.093-380.488-257.922c0,0-12.068,5.809-33.441,14.786c0,0-0.163,0.001-0.326,0.166    c-92.181,38.739-356.902,136.715-598.307,100.864l-3.767-0.629c-11.464-1.723-22.931-3.937-34.236-6.315    c0,0-266.419-82.149-335.111-249.391c-24.614-59.553-35.833-122.469-39.372-186.744c-2.421-43.832-3.698-87.999-13.312-130.964    c-1.014-4.901-2.192-9.802-3.533-14.537c-2.516-9.309-6.52-20.899-12.16-32.314c-11.948-25.116-30.929-49.858-57.105-49.683    c-55.107,4.459-98.967,27.168-152.227,14.272c-22.139-7.541-37.802-25.434-45.93-42.067c-5.473-11.089-7.671-21.709-5.915-28.103    c-0.002-0.326-0.004-0.654,0.157-0.982c0,0-98.709-32.062-99.269-115.663l30.919-73.832c0,0,68.278,7.723,95.299-12.909    c45.905-34.829,28.923-103.105,70.724-140.035c13.824-12.364,30.949-20.495,48.249-26.992    c85.681-32.151,183.239-25.278,264.345,16.881c43.015,22.291,60.586,56.368,66.789,102.956    c6.881,50.347,19.083,113.255,49.986,159.187c4.957,7.329,10.403,14.328,16.336,20.669c5.604,6.18,11.858,11.7,18.435,16.564    c4.442,3.57,9.207,6.647,14.297,9.395c0,0,7.71,3.221,21.328,8.855c82.689,34.132,386.02,155.464,558.109,175.417    c89.729,10.361,184.157,14.146,261.226,15.267c10.636,0.091,21.107,0.185,31.089,0.282c78.535,0.292,132.348-2.032,132.348-2.032    s12.52-11.7,30.057-31.614c38.323-43.123,100.931-124.694,113.134-208.217c3.133-20.8,2.993-41.741-1.234-62.164    c-29.573-140.509-34.269-230.954-18.044-251.351c5.19-6.579,17.59,12.644,31.879,45.106    c30.065,67.534,69.187,192.436,72.42,259.821c3.818,81.617-52.245,212.063-108.537,283.775    c-12.329,15.789-24.841,28.798-36.561,37.711c0,0,3.63,4.558,9.414,13.189c8.924,13.192,23.309,35.839,37.741,65.355    c42.794,86.919,87.136,234.036,2.853,377.105c0,0,7.636,40.852,49.662,86.382l0.163-0.002    c16.481,18.052,38.532,36.883,67.771,54.029c8.048,4.691,15.5,18.057,22.174,37.482    C2470.077,2213.855,2482.764,2391.727,2464.67,2450.748z" class="colore8dbd1 svgShape"/><path fill="#167ffc" d="M2301.184,2133.672c-91.066-14.606-310.344-69.093-380.488-257.922c0,0-19.277-44.536-0.895-133.664    c0,0,39.56,214.885,219.967,279.775C2258.016,2064.263,2291.852,2108.374,2301.184,2133.672z" class="color000000 svgShape" opacity=".42"/><path fill="#595bd4" d="M757.256,911.073c0,0-113.229,49.987-107.061,126.833c6.168,76.847,77.684,95.349,120.982,100.765    c43.298,5.417,159.417,45.825,159.417,45.825l93.427-139.695c0,0,27.372-2.106,24.749-28.737s-33.135-81.826-120.01-105.605    C848.53,888.5,757.256,911.073,757.256,911.073z" class="color6c6d6c svgShape"/><path fill="#d1e8d5" d="M1378.587,1816.076c-2.245,6.724-4.985,12.959-8.055,18.705    c-43.458,82.589-162.184,90.91-148.604,139.739c10.728,38.376-47.648,360.918-32.477,403.192c1.5,4.08,2.834,7.998,4.005,11.753    c18.894,60.573,1.383,84.415-33.288,86.61c-21.261,1.287-79.729,16.895-118.585,4.885c-0.164,0-0.328-0.162-0.328-0.162    c-38.695-12.176-32.536-45.431-4.192-63.944c20.689-13.392,42.943-12.886,58.252-23.459c5.863-3.966,10.571-9.561,13.787-17.927    c1.125-2.952,2.077-7.375,2.859-12.78c7.513-50.771-1.336-199.597-23.955-278.797c-25.13-87.854-55.171-298.222-55.171-298.222    s346.741-139.429,359.189-112.844C1404.474,1699.248,1412.763,1715.554,1378.587,1816.076z" class="colore8dbd1 svgShape"/><path fill="#167ffc" d="M714.977,1255.229c-9.926,8.247-20.507,16.171-32.416,21.486c-11.742,5.642-24.147,9.979-36.892,12.518    c-12.743,2.867-25.822,4.264-38.747,4.35c-5.072,0.034-10.146-0.096-15.055-0.389c-5.473-11.089-7.671-21.709-5.915-28.103    c7.045,1.426,14.415,2.522,21.617,2.964c11.458,0.741,22.909,0.502,34.188-0.883s22.386-4.24,32.995-8.238    c10.772-3.836,20.385-9.954,29.832-16.398l0.652-0.331c3.745-2.644,8.824-1.532,11.303,2.051    C719.018,1247.84,718.231,1252.59,714.977,1255.229z" class="color000000 svgShape" opacity=".19"/><path fill="#167ffc" d="M770.513,1038.11c-2.724,0.018-5.401-1.322-6.967-3.796c-17.448-27.485-67.925-18.431-68.428-18.324    c-4.468,0.853-8.714-2.099-9.542-6.535c-0.829-4.437,2.083-8.706,6.519-9.542c2.521-0.497,61.895-11.192,85.261,25.632    c2.422,3.818,1.29,8.875-2.521,11.289C773.49,1037.691,771.991,1038.101,770.513,1038.11z" class="color000000 svgShape" opacity=".31"/><path fill="#595bd4" d="M835.916,992.415c0,0-25.022,80.951-47.107,142.453c-22.084,61.502,18.159,175.473,108.181,180.742    c90.021,5.27,137.774-40.803,138.393-101.139c0.618-60.336,11.551-167.186,13.387-198.408    C1050.605,984.842,835.916,992.415,835.916,992.415z" class="color6c6d6c svgShape"/><path fill="#595bd4" d="M1048.779,1016.085c-1.918,31.262-21.923,97.822-22.502,158.035    c-0.577,60.376-38.007,114.783-128.029,109.496c-74.635-4.245-93.42-72.836-85.139-131.137c1.718-12.118,4.585-23.754,8.279-34.25    c22.167-61.502,14.538-125.751,14.538-125.751S1050.533,984.823,1048.779,1016.085z" class="color6c6d6c svgShape"/><path fill="#167ffc" d="M1048.779,1016.085c-1.918,31.262-21.923,97.822-22.502,158.035c-0.577,60.376-38.007,114.783-128.029,109.496    c-74.635-4.245-93.42-72.836-85.139-131.137c7.614,37.58,25.196,73.293,63.056,83.02c87.847,22.646,122.397-22.089,120.433-71.159    C994.797,1115.268,1048.779,1016.085,1048.779,1016.085z" class="color000000 svgShape" opacity=".15"/><path fill="#167ffc" d="M517.765,1074.647c0,0-74.976,1.865-30.865,73.832C486.9,1148.479,543.943,1115.375,517.765,1074.647z" class="color000000 svgShape"/><path fill="#595bd4" d="M2349.104,2033.221c-109.37,37.218-265.181-190.468-325.426-244.547    c-60.407-54.078-276.093-85.355-387.854-87.389c-111.76-2.033-250.189,93.625-293.284,108.312    c-42.932,14.686-215.812,23.205-299.271-28.101c-83.296-51.471-134.65-213.503-124.729-277.141    c13.61-87.296-23.908-125.33-23.908-125.33c128.26-26.056,211.548-146.868,234.855-184.654c5.604,6.18,11.858,11.7,18.435,16.564    c4.442,3.57,9.207,6.647,14.297,9.395c0,0,378.857,161.074,579.438,184.272c102.336,11.75,210.669,15.114,292.314,15.549    c42.559,27.529,78.93,59.19,102.275,76.049c23.838,17.183,79.936,14.026,122.6,8.177    c35.525,52.118,153.511,250.771,40.594,442.461C2299.441,1946.839,2307.077,1987.69,2349.104,2033.221z" class="color6c6d6c svgShape"/><path fill="#202021" d="M1147.923,1210.936c1.949,4.714-56.187,69.063-62.154,74.794    c-22.221,21.343-46.529,40.465-72.16,57.542c-42.116,28.06-87.795,50.765-135.135,68.574c-5.952,2.239-13.548,7.218-18.415,3.048    c-6.638-5.688-10.17-14.601-12.341-22.846c-0.935-3.55-5.663-19.579-0.589-21.375c65.942-23.347,197.258-81.981,266.022-196.97    C1127.909,1179.166,1141.655,1195.776,1147.923,1210.936z" class="color212120 svgShape"/><path fill="#595bd4" d="M2333.264,1256.009c-19.161,46.103-53.448,105.56-82.242,130.294    c-12.852,11.048-34.637,7.431-54.645,0.203c38.323-43.123,100.931-124.694,113.134-208.217    C2328.667,1204.829,2342.279,1234.188,2333.264,1256.009z" class="color6c6d6c svgShape"/><path fill="#167ffc" d="M2336.62,1317.503c32.174-57.479,4.157-209.941-12.95-297.031c-8.47-43.137-6.114-82.255-1.559-110.591    c30.065,67.534,69.187,192.436,72.42,259.821c3.818,81.617-52.245,212.063-108.537,283.775    C2295.549,1414.474,2315.44,1355.277,2336.62,1317.503z" class="color000000 svgShape" opacity=".42"/><path fill="#167ffc" d="M2439.211,2124.73c-30.494-9.448-68.546-23.428-92.057-40.449c-44.061-31.773-115.275-136.172-58.307-204.615    c40.9-49.193,21.771-218.24,7.741-309.933c42.794,86.919,87.136,234.036,2.853,377.105c0,0,7.636,40.852,49.662,86.382    l0.163-0.002c16.481,18.052,38.532,36.883,67.771,54.029C2425.085,2091.939,2432.537,2105.305,2439.211,2124.73z" class="color000000 svgShape" opacity=".31"/><path fill="#167ffc" d="M1886.928,1890.702c-92.181,38.739-356.902,136.715-598.307,100.864l-3.767-0.629c0,0-32.788-54.958,53.741-85.9    C1338.595,1905.037,1478.028,1983.263,1886.928,1890.702z" class="color000000 svgShape" opacity=".42"/><path fill="#167ffc" d="M2002.884,1419.87c-65.645,18.927-146.346,37.301-205.099,34.914c-117.34-4.614-414.939-76.246-527.283-141.102    c-64.221-37.037-82.742-66.362-86.954-84.496c82.689,34.132,386.02,155.464,558.109,175.417    C1831.387,1414.963,1925.815,1418.749,2002.884,1419.87z" class="color000000 svgShape" opacity=".31"/><path fill="#167ffc" d="M1370.522,1834.77c-43.459,82.587-162.184,90.908-148.604,139.737c10.727,38.377-47.648,360.919-32.477,403.192    c1.5,4.08,2.834,7.998,4.005,11.754c-11.873-13.992-26.24-33.855-29.792-51.011c-6.422-30.553,16.556-264.017,5.92-337.57    c-10.801-73.717,29.855-110.475,82.167-117.042C1284.927,1879.682,1336.942,1853.318,1370.522,1834.77z" class="color000000 svgShape" opacity=".42"/><circle cx="529.128" cy="1167.678" r="4.013" fill="#167ffc" class="color000000 svgShape"/><circle cx="538.032" cy="1145.259" r="5.041" fill="#167ffc" class="color000000 svgShape"/><circle cx="552.96" cy="1106.177" r="5.047" fill="#167ffc" class="color000000 svgShape"/><circle cx="561.266" cy="1129.738" r="3.1" fill="#167ffc" class="color000000 svgShape"/><circle cx="577.899" cy="1167.352" r="4.013" fill="#167ffc" class="color000000 svgShape"/><circle cx="552.336" cy="1167.523" r="4.013" fill="#167ffc" class="color000000 svgShape"/><circle cx="588.234" cy="1130.268" r="3.81" fill="#167ffc" class="color000000 svgShape"/><circle cx="604.905" cy="1147.332" r="2.521" fill="#167ffc" class="color000000 svgShape"/><path fill="#167ffc" d="M1203.474,1344.051c60.451,36.41,117.158,82.722,185.182,88.677c33.858,3.595,69.069,4.543,104.873,7.315    c35.687,2.669,73.041,10.536,106.962,23.046c67.313,24.636,129.438,59.901,195.887,55.173    c33.04-2.126,66.43-13.897,100.798-23.204c34.209-8.317,72.465-15.359,106.357-2.417c-35.424-5.417-69.276,4.582-101.482,17.698    c-32.694,12.053-65.499,27.078-102.895,32.939c-37.642,6.213-75.779-1.559-110.249-12.292    c-34.74-11.083-67.035-25.722-99.515-37.136c-63.172-26.371-132.777-22.835-204.796-36.399    c-36.397-7.131-70.776-23.189-99.991-44.204C1255.747,1391.494,1229.916,1367.679,1203.474,1344.051z" class="color000000 svgShape" opacity=".15"/><path fill="#9eaaa0" d="M1122.44,1236.56c5.666-8.173,3.629-19.411-4.594-25.111c-1.733-1.202-3.574-2.038-5.403-2.572     c-7.203-1.987-15.175,0.628-19.673,7.117c-5.699,8.223-3.663,19.461,4.51,25.126c3.269,2.266,7.012,3.32,10.675,3.22     C1113.524,1244.239,1119.007,1241.513,1122.44,1236.56z" class="coloraaa49e svgShape"/><path fill="#167ffc" d="M1122.44,1236.56c5.666-8.173,3.629-19.411-4.594-25.111c-1.733-1.202-3.574-2.038-5.403-2.572     c14.993,17.726,1.918,30.663-4.488,35.462C1113.524,1244.239,1119.007,1241.513,1122.44,1236.56z" class="color000000 svgShape" opacity=".36"/><path fill="#fff" d="M1104.446,1235.135c-4.324-1.116-6.397-5.886-5.993-10.317c1.031-4.338,3.846-7.976,8.149-8.661     C1104.614,1224.593,1103.426,1226.801,1104.446,1235.135z" class="colorffffff svgShape" opacity=".75"/><g fill="#167ffc" class="color000000 svgShape"><path fill="#9eaaa0" d="M1061.518,1300.913c5.665-8.173,3.628-19.412-4.594-25.111c-1.733-1.202-3.574-2.038-5.403-2.572     c-7.204-1.987-15.175,0.627-19.673,7.117c-5.699,8.222-3.663,19.46,4.51,25.126c3.269,2.266,7.012,3.32,10.675,3.22     C1052.601,1308.592,1058.084,1305.866,1061.518,1300.913z" class="coloraaa49e svgShape"/><path d="M1061.518,1300.913c5.665-8.173,3.628-19.412-4.594-25.111c-1.733-1.202-3.574-2.038-5.403-2.572     c14.993,17.726,1.918,30.663-4.488,35.462C1052.601,1308.592,1058.084,1305.866,1061.518,1300.913z" class="color000000 svgShape" opacity=".36"/><path fill="#fff" d="M1043.523,1299.489c-4.324-1.118-6.397-5.888-5.994-10.317c1.031-4.338,3.846-7.976,8.149-8.662     C1043.691,1288.946,1042.502,1291.155,1043.523,1299.489z" class="colorffffff svgShape" opacity=".75"/></g><g fill="#167ffc" class="color000000 svgShape"><path fill="#9eaaa0" d="M988.229,1351.169c5.666-8.173,3.629-19.411-4.594-25.111c-1.733-1.202-3.574-2.038-5.403-2.572     c-7.203-1.987-15.175,0.628-19.673,7.117c-5.7,8.223-3.663,19.461,4.51,25.126c3.269,2.266,7.012,3.32,10.675,3.22     C979.313,1358.848,984.795,1356.123,988.229,1351.169z" class="coloraaa49e svgShape"/><path d="M988.229,1351.169c5.666-8.173,3.629-19.411-4.594-25.111c-1.733-1.202-3.574-2.038-5.403-2.572     c14.993,17.726,1.918,30.663-4.488,35.462C979.313,1358.848,984.795,1356.123,988.229,1351.169z" class="color000000 svgShape" opacity=".36"/><path fill="#fff" d="M970.235,1349.745c-4.325-1.116-6.398-5.886-5.994-10.317c1.031-4.337,3.846-7.976,8.149-8.662     C970.402,1339.202,969.214,1341.411,970.235,1349.745z" class="colorffffff svgShape" opacity=".75"/></g><g fill="#167ffc" class="color000000 svgShape"><path fill="#9eaaa0" d="M902.601,1391.282c5.666-8.173,3.629-19.412-4.594-25.111c-1.733-1.202-3.574-2.038-5.403-2.572     c-7.204-1.986-15.175,0.628-19.673,7.117c-5.699,8.222-3.663,19.461,4.51,25.126c3.27,2.266,7.012,3.32,10.675,3.219     C893.685,1398.961,899.168,1396.235,902.601,1391.282z" class="coloraaa49e svgShape"/><path d="M902.601,1391.282c5.666-8.173,3.629-19.412-4.594-25.111c-1.733-1.202-3.574-2.038-5.403-2.572     c14.993,17.726,1.918,30.663-4.488,35.462C893.685,1398.961,899.168,1396.235,902.601,1391.282z" class="color000000 svgShape" opacity=".36"/><path fill="#fff" d="M884.607,1389.858c-4.324-1.117-6.397-5.886-5.994-10.317c1.031-4.337,3.846-7.976,8.149-8.662     C884.774,1379.315,883.586,1381.524,884.607,1389.858z" class="colorffffff svgShape" opacity=".75"/></g><g fill="#167ffc" class="color000000 svgShape" opacity=".15"><path d="M2243.71,1612.379c23.917,18.906,39.82,48.67,43.868,80.84c4.547,32.488-4.94,66.035-21.496,93.325    c-8.816,14.467-16.738,24.261-23.44,36.655c-7.626,11.624-12.445,24.247-17.324,36.85c-8.333,25.33-10.265,53.833,3.464,81.045    c-25.251-18.507-34.02-55.397-28.329-86.854c2.525-15.946,7.883-31.371,14.796-45.517c6.478-14.124,16.778-27.882,22.785-38.993    c14.451-22.913,23.021-48.358,24.142-75.203C2263.094,1667.691,2256.787,1639.57,2243.71,1612.379z" class="color000000 svgShape"/></g><g fill="#167ffc" class="color000000 svgShape" opacity=".15"><path d="M974.595,1486.103c7.507,35.767,16.781,70.947,30.549,104.118c13.116,33.157,30.036,65.054,53.504,89.722    c23.56,25.01,53.666,36.692,88.595,43.208c33.834,6.514,68.653,6.636,102.889,0.729c69.513-10.886,133.251-42.858,201.684-72.112    c35.589-13.211,73.06-19.766,110.237-21.184c37.201,0.249,74.439,3.794,109.243,15.667c-36.252-4.595-72.612-4.718-108.051,0.329    c-35.38,4.538-70.037,13.508-101.753,28.424c-62.689,33.002-130.77,68.636-206.121,81.155    c-37.612,5.856-76.924,5.648-114.448-2.768c-9.268-2.51-18.685-4.485-27.644-7.862l-13.562-4.63l-13.764-6.685    c-18.5-8.77-33.284-22.906-46.016-37.607C991.761,1634.617,976.947,1558.726,974.595,1486.103z" class="color000000 svgShape"/></g><g fill="#167ffc" class="color000000 svgShape" opacity=".15"><path d="M850.338,1158.456c19.834,11.146,41.588,18.673,57.425,13.951c14.991-4.241,27.439-19.704,34.051-36.403    c6.989-17.038,8.933-38.523,14.259-61.061c4.617-22.079,16.243-48.619,38.464-58.495c-11.825,20.529-12.108,40.236-12.71,61.803    c-0.376,21.478-0.053,45.406-9.888,70.029c-5.225,12.013-13.003,23.551-22.784,32.375c-10.214,8.812-23.757,16.128-38.288,16.399    C881.4,1197.422,861.212,1178.241,850.338,1158.456z" class="color000000 svgShape"/></g><g fill="#167ffc" class="color000000 svgShape"><path fill="#dff5e3" d="M748.07,1047.165c1.736-3.968-2.345-21.495-24.349-23.92      c-15.043-1.658-19.674,5.365-21.987,12.671c0,0-1.89,17.981,22.428,21.613C739.434,1059.81,746.537,1050.668,748.07,1047.165z" class="colorf5f2df svgShape"/><path fill="#53d86a" d="M728.854,1059.387c-1.557,0-3.19-0.124-4.901-0.37c-25.46-3.791-23.734-23.071-23.719-23.256      c2.389-7.629,7.089-15.751,23.657-14.009c14.21,1.557,20.605,9.201,23.164,13.609c2.928,5.07,3.421,10.079,2.389,12.406l0,0      C747.548,1052.097,740.952,1059.387,728.854,1059.387z M719.514,1024.51c-10.988,0-14.471,5.903-16.352,11.852      c0,0.385-1.295,16.321,21.222,19.666c16.737,2.481,22.208-9.247,22.316-9.463c0.493-1.156,0.354-5.178-2.25-9.694      c-2.281-3.915-7.999-10.711-20.898-12.129C722.103,1024.587,720.762,1024.51,719.514,1024.51z" class="color939393 svgShape"/><ellipse cx="725.144" cy="1040.929" fill="#333" class="color333333 svgShape" rx="15.879" ry="14.722" transform="rotate(2.487 725.69 1041.755)"/><g class="color000000 svgShape"><ellipse cx="734.484" cy="1038.11" fill="#dff5e3" class="colorf5f2df svgShape" rx="3.255" ry="4.614" transform="rotate(88.08 734.515 1038.13)"/></g></g></svg>